<?xml version="1.0" encoding="UTF-8" standalone="no"?>
<!-- Created with Inkscape (http://www.inkscape.org/) -->

<svg
   width="720.98956mm"
   height="372.09576mm"
   viewBox="0 0 720.98956 372.09576"
   version="1.1"
   id="svg1"
   xml:space="preserve"
   xmlns:xlink="http://www.w3.org/1999/xlink"
   xmlns="http://www.w3.org/2000/svg"
   xmlns:svg="http://www.w3.org/2000/svg"
   preserveAspectRatio="none"><defs
     id="defs1"><linearGradient
       id="linearGradient142"><stop
         style="stop-color:#838383;stop-opacity:0.36572051;"
         offset="0"
         id="stop141" /><stop
         style="stop-color:#d7d7d7;stop-opacity:0;"
         offset="1"
         id="stop142" /></linearGradient><linearGradient
       id="linearGradient133"><stop
         style="stop-color:#dedede;stop-opacity:1;"
         offset="0"
         id="stop133" /><stop
         style="stop-color:#d7d7d7;stop-opacity:1;"
         offset="1"
         id="stop134" /></linearGradient><filter
       style="color-interpolation-filters:sRGB"
       id="filter2167"
       x="-0.014156216"
       y="-0.073316525"
       width="1.0283124"
       height="1.146633"><feGaussianBlur
         stdDeviation="2.3932767"
         id="feGaussianBlur2167" /></filter><linearGradient
       xlink:href="#linearGradient2120-1"
       id="linearGradient2255"
       gradientUnits="userSpaceOnUse"
       x1="1135.4918"
       y1="-189.7668"
       x2="1455.2507"
       y2="-83.106644" /><linearGradient
       id="linearGradient2120-1"><stop
         style="stop-color:#9b3609;stop-opacity:1;"
         offset="0"
         id="stop2120" /><stop
         style="stop-color:#9b3509;stop-opacity:1;"
         offset="1"
         id="stop2121" /></linearGradient><linearGradient
       xlink:href="#linearGradient2120-1"
       id="linearGradient349"
       gradientUnits="userSpaceOnUse"
       x1="1135.4918"
       y1="-189.7668"
       x2="1455.2507"
       y2="-83.106644" /><filter
       style="color-interpolation-filters:sRGB"
       id="filter362"
       x="-0.035524791"
       y="-0.054719309"
       width="1.0437959"
       height="1.1083622"><feFlood
         result="flood"
         in="SourceGraphic"
         flood-opacity="0.709804"
         flood-color="rgb(4,4,4)"
         id="feFlood361" /><feGaussianBlur
         result="blur"
         in="SourceGraphic"
         stdDeviation="6.191950"
         id="feGaussianBlur361" /><feOffset
         result="offset"
         in="blur"
         dx="0.000000"
         dy="0.000000"
         id="feOffset361" /><feComposite
         result="comp1"
         operator="in"
         in="flood"
         in2="offset"
         id="feComposite361" /><feComposite
         result="comp2"
         operator="over"
         in="SourceGraphic"
         in2="comp1"
         id="feComposite362" /></filter><filter
       style="color-interpolation-filters:sRGB"
       id="filter364"
       x="-0.035524784"
       y="-0.054719309"
       width="1.0437959"
       height="1.1083623"><feFlood
         result="flood"
         in="SourceGraphic"
         flood-opacity="0.709804"
         flood-color="rgb(4,4,4)"
         id="feFlood362" /><feGaussianBlur
         result="blur"
         in="SourceGraphic"
         stdDeviation="6.191950"
         id="feGaussianBlur362" /><feOffset
         result="offset"
         in="blur"
         dx="0.000000"
         dy="0.000000"
         id="feOffset362" /><feComposite
         result="comp1"
         operator="in"
         in="flood"
         in2="offset"
         id="feComposite363" /><feComposite
         result="comp2"
         operator="over"
         in="SourceGraphic"
         in2="comp1"
         id="feComposite364" /></filter><linearGradient
       xlink:href="#linearGradient133"
       id="linearGradient134"
       x1="-828.47656"
       y1="1935.6052"
       x2="-107.48698"
       y2="1935.6052"
       gradientUnits="userSpaceOnUse" /><linearGradient
       xlink:href="#linearGradient142"
       id="linearGradient141"
       gradientUnits="userSpaceOnUse"
       x1="-476.51599"
       y1="2126.2019"
       x2="-476.51599"
       y2="1888.833" /></defs><g
     id="layer1"
     transform="translate(828.47658,-1749.5572)">
     
     <g
       id="g2289"
       style="display:inline"
       transform="matrix(0.0673613,0,0,0.0673613,873.13849,409.85272)"><g
         id="g2262"
         transform="translate(-301.37323,615.054)"
         style="filter:url(#filter362)"><g
           id="g2219"
           transform="translate(472.39889)"><g
             id="g2210"
             transform="matrix(0.69393884,0,0,0.69393884,354.4114,236.84835)"
             style="fill:#696d19;fill-opacity:0.646237;filter:url(#filter2167)"><path
               style="opacity:1;fill:#696d19;fill-opacity:0.646237;stroke-width:1;stroke-linecap:round;stroke-linejoin:round;stroke-opacity:0"
               xlink:href="#rect2126"
               id="path2204"
               d="m 1106.1621,-163.2793 c -10.2781,0 -18.2851,8.00703 -18.2851,18.28516 v 24.55664 c 0,10.27811 8.0062,18.2832 18.2851,18.2832 h 351.9609 c 10.2789,0 18.2833,-8.00436 18.2833,-18.2832 v -24.55664 c 0,-10.27886 -8.0051,-18.28516 -18.2833,-18.28516 z" /></g><g
             id="g2218"
             transform="matrix(0.69393884,0,0,0.69393884,354.4114,229.70284)"><path
               style="opacity:1;fill:url(#linearGradient349);fill-opacity:1;stroke-width:1;stroke-linecap:round;stroke-linejoin:round;stroke-opacity:0"
               xlink:href="#rect2126"
               id="path2212"
               d="m 1106.1621,-163.2793 c -10.2781,0 -18.2851,8.00703 -18.2851,18.28516 v 24.55664 c 0,10.27811 8.0062,18.2832 18.2851,18.2832 h 351.9609 c 10.2789,0 18.2833,-8.00436 18.2833,-18.2832 v -24.55664 c 0,-10.27886 -8.0051,-18.28516 -18.2833,-18.28516 z" /></g></g></g><g
         id="g2283"
         style="filter:url(#filter364)"><g
           id="g2169"
           transform="translate(171.02568,308.6963)"><g
             id="g2158"
             transform="matrix(0.69393884,0,0,0.69393884,354.4114,236.84835)"
             style="fill:#696d19;fill-opacity:0.646237;filter:url(#filter2167)"><path
               style="opacity:1;fill:#696d19;fill-opacity:0.646237;stroke-width:1;stroke-linecap:round;stroke-linejoin:round;stroke-opacity:0"
               xlink:href="#rect2126"
               id="path2156"
               d="m 1106.1621,-163.2793 c -10.2781,0 -18.2851,8.00703 -18.2851,18.28516 v 24.55664 c 0,10.27811 8.0062,18.2832 18.2851,18.2832 h 351.9609 c 10.2789,0 18.2833,-8.00436 18.2833,-18.2832 v -24.55664 c 0,-10.27886 -8.0051,-18.28516 -18.2833,-18.28516 z" /></g><g
             id="g2154"
             transform="matrix(0.69393884,0,0,0.69393884,354.4114,229.70284)"><path
               style="opacity:1;fill:url(#linearGradient2255);fill-opacity:1;stroke-width:1;stroke-linecap:round;stroke-linejoin:round;stroke-opacity:0"
               xlink:href="#rect2126"
               id="path2127"
               d="m 1106.1621,-163.2793 c -10.2781,0 -18.2851,8.00703 -18.2851,18.28516 v 24.55664 c 0,10.27811 8.0062,18.2832 18.2851,18.2832 h 351.9609 c 10.2789,0 18.2833,-8.00436 18.2833,-18.2832 v -24.55664 c 0,-10.27886 -8.0051,-18.28516 -18.2833,-18.28516 z" /></g></g></g></g><path
       style="color:#000000;fill:#ffffff;stroke-width:5;stroke-linecap:round;stroke-linejoin:round;stroke-dasharray:none"
       xlink:href="#rect64"
       id="path96"
       d="m 1467.2852,94.482422 c -6.966,0.01542 -13.9775,-0.0314 -21.0332,0.02344 a 5.8225903,5.8225903 0 0 0 -0.209,0.0059 c -8.667,0.378956 -16.5182,5.337156 -20.6856,12.876951 -2.4805,4.35081 -3.3886,9.2087 -3.1894,13.85352 l -0.01,-0.25 v 19.72656 a 5.8225903,5.8225903 0 0 0 0.7422,2.84375 c 0.9646,1.72339 3.2234,3.09392 4.6562,3.37891 1.4329,0.28498 2.1378,0.13001 2.3008,0.12304 l -0.248,0.006 h 8.9004 a 5.8225903,5.8225903 0 0 0 2.8437,-0.74219 c 1.7233,-0.96468 3.094,-3.22356 3.3789,-4.65625 0.285,-1.43268 0.13,-2.13781 0.1231,-2.30078 l 0.01,0.26172 c 0.016,-6.84993 -0.03,-13.65214 0.024,-20.40625 0.047,-0.69668 0.9408,-1.77637 1.5605,-1.92578 a 5.8225903,5.8225903 0 0 0 0.027,-0.008 c 0.567,-0.13967 2.294,-0.0151 4.9062,-0.10742 h 17.0156 a 5.8225903,5.8225903 0 0 0 2.8438,-0.74219 c 1.7233,-0.96451 3.0939,-3.22324 3.3789,-4.65625 0.285,-1.43301 0.13,-2.13944 0.123,-2.30273 l 0.01,0.25 v -8.9004 a 5.8225903,5.8225903 0 0 0 -0.7422,-2.843746 c -0.9646,-1.723386 -3.2234,-3.09392 -4.6562,-3.378906 -1.4329,-0.284985 -2.1378,-0.130021 -2.3008,-0.123047 z m 46.6992,0 c -3.3263,0.362211 -3.6072,1.26774 -4.6465,2.234375 a 5.8225903,5.8225903 0 0 0 -1.7051,4.117183 v 10 a 5.8225903,5.8225903 0 0 0 0.7422,2.84375 c 0.9646,1.72339 3.2234,3.09392 4.6563,3.37891 1.4328,0.285 2.1377,0.13002 2.3007,0.12305 l -0.2617,0.006 c 6.8497,0.0163 13.6511,-0.0301 20.4043,0.0234 0.7007,0.0474 1.7786,0.93638 1.9297,1.5625 a 5.8225903,5.8225903 0 0 0 0,0.006 c 0.1496,0.61729 0.02,2.38334 0.1132,5.02735 v 16.91406 a 5.8225903,5.8225903 0 0 0 0.7422,2.84375 c 0.9646,1.72339 3.2234,3.09392 4.6563,3.37891 1.4328,0.28498 2.1378,0.13001 2.3008,0.12304 l -0.2481,0.006 h 8.9004 a 5.8225903,5.8225903 0 0 0 2.8437,-0.74219 c 1.7234,-0.96458 3.094,-3.22339 3.379,-4.65625 0.2849,-1.43285 0.1299,-2.13811 0.123,-2.30078 l 0.01,0.23243 c -0.018,-6.96985 0.036,-13.99301 -0.027,-21.06641 a 5.8225903,5.8225903 0 0 0 -0.01,-0.20703 c -0.387,-8.65718 -5.3453,-16.49514 -12.877,-20.654299 -4.3475,-2.477506 -9.2022,-3.387605 -13.8496,-3.1875 l 0.25,-0.0059 z m -85.4707,85.470698 c -3.3262,0.36217 -3.6073,1.26785 -4.6465,2.23438 a 5.8225903,5.8225903 0 0 0 -1.7051,4.13086 c 0.017,7.34125 -0.034,14.73015 0.025,22.16406 a 5.8225903,5.8225903 0 0 0 0.01,0.21485 c 0.3894,8.6558 5.3483,16.49231 12.8789,20.65234 4.3016,2.44846 9.1105,3.37858 13.7382,3.1875 l -0.2402,0.006 h 19.8281 a 5.8225903,5.8225903 0 0 0 2.8438,-0.74219 c 1.7233,-0.96451 3.0939,-3.22324 3.3789,-4.65625 0.285,-1.43301 0.13,-2.13944 0.123,-2.30273 l 0.01,0.25 v -8.90039 a 5.8225903,5.8225903 0 0 0 -0.7422,-2.84375 c -0.9646,-1.72339 -3.2234,-3.09392 -4.6562,-3.37891 -1.4329,-0.28499 -2.1378,-0.13002 -2.3008,-0.12305 l 0.2637,-0.006 c -6.8578,-0.0176 -13.6642,0.0324 -20.418,-0.0254 -0.6923,-0.0458 -1.796,-0.97858 -1.9317,-1.60937 v -0.002 c -0.1529,-0.71989 0.01,-2.45269 -0.1054,-5.21875 l 0.01,0.23829 v -16.91797 a 5.8225903,5.8225903 0 0 0 -0.7422,-2.84375 c -0.9645,-1.72293 -3.2233,-3.09391 -4.6562,-3.37891 -1.4329,-0.285 -2.1378,-0.13001 -2.3008,-0.12305 l 0.2481,-0.006 z m 115.3574,0 c -3.3257,0.36122 -3.6111,1.26699 -4.6465,2.23438 a 5.8225903,5.8225903 0 0 0 -1.7051,4.10352 c -0.018,7.2199 0.032,14.39041 -0.025,21.51171 -0.046,0.68949 -0.94,1.77161 -1.5625,1.92188 a 5.8225903,5.8225903 0 0 0 -0,0.002 c -0.6207,0.15035 -2.3839,0.0209 -5.0273,0.11328 h -16.916 a 5.8225903,5.8225903 0 0 0 -2.8438,0.74219 c -1.7232,0.96451 -3.0938,3.22324 -3.3789,4.65625 -0.285,1.43301 -0.13,2.13944 -0.123,2.30274 l -0.01,-0.25 v 8.90039 a 5.8225903,5.8225903 0 0 0 0.7422,2.84375 c 0.9646,1.72338 3.2234,3.09392 4.6563,3.3789 1.4328,0.28499 2.1377,0.13002 2.3007,0.12305 l -0.2324,0.006 c 6.9701,-0.0179 13.9938,0.0368 21.0684,-0.0273 a 5.8225903,5.8225903 0 0 0 0.2031,-0.006 c 8.9494,-0.39452 17.008,-5.67756 21.0469,-13.60547 2.2425,-4.23908 2.9772,-8.85588 2.7988,-13.20899 l 0.01,0.23828 v -19.6289 a 5.8225903,5.8225903 0 0 0 -0.7422,-2.84375 c -0.9646,-1.7234 -3.2234,-3.09392 -4.6563,-3.37891 -1.4328,-0.28498 -2.1378,-0.13002 -2.3008,-0.12305 l 0.2481,-0.006 z"
       transform="matrix(0.92338989,0,0,0.92338989,114.24125,12.526726)" /><path
       id="path128"
       style="fill:url(#linearGradient134);fill-opacity:1;stroke-width:0.499999;stroke-linecap:round;stroke-linejoin:round"
       d="m -825.13516,1749.5573 c -1.85115,0 -3.3414,1.4902 -3.3414,3.3414 v 334.3749 c 38.02204,-7.153 88.2781,-17.8034 133.94531,-20.2163 67.9656,-3.5911 320.15083,56.0034 380.33854,54.5703 60.18771,-1.4331 154.69615,-35.1742 206.70573,-53.2861 v -315.4428 c 0,-1.8512 -1.49025,-3.3414 -3.3414,-3.3414 z" /><path
       id="path136"
       style="fill:url(#linearGradient141);fill-opacity:1;stroke-width:0.499999;stroke-linecap:round;stroke-linejoin:round"
       d="m -825.13516,1749.5573 c -1.85115,0 -3.3414,1.4902 -3.3414,3.3414 v 334.3749 c 38.02204,-7.153 88.2781,-17.8034 133.94531,-20.2163 67.9656,-3.5911 320.15083,56.0034 380.33854,54.5703 60.18771,-1.4331 154.69615,-35.1742 206.70573,-53.2861 v -315.4428 c 0,-1.8512 -1.49025,-3.3414 -3.3414,-3.3414 z"
       mask="none" /></g></svg>
